<svg id="Layer_35" enable-background="new 0 0 64 64" height="512" viewBox="0 0 64 64" width="512" xmlns="http://www.w3.org/2000/svg" xmlns:xlink="http://www.w3.org/1999/xlink"><linearGradient id="SVGID_1_" gradientUnits="userSpaceOnUse" x1="32" x2="32" y1="63" y2="1"><stop offset="0" stop-color="#9f2fff"/><stop offset="1" stop-color="#0bb1d3"/></linearGradient><path d="m24.429 49.045 1.143 1.641-1.63 1.135-1.143-1.641zm2-1.392 1.143 1.641 13.61-9.474-1.143-1.641zm33.936-33.065 2.635.62v5.792 1.792 40.208h-58c-2.206 0-4-1.794-4-4v-19-8c0-3.839 2.42-7.115 5.811-8.406-1.703-1.278-2.811-3.306-2.811-5.594 0-3.859 3.141-7 7-7s7 3.141 7 7c0 1.958-.81 3.728-2.111 5h2.444c.215 0 .428-.071.6-.2l6.751-5.062c.392-.294.844-.494 1.316-.614v-1.916l2.635-.62c.332-1.159.795-2.275 1.381-3.332l-1.426-2.303 5.363-5.363 2.303 1.426c1.057-.586 2.173-1.049 3.332-1.381l.62-2.635h7.584l.62 2.635c1.159.332 2.275.795 3.332 1.381l2.303-1.426 5.363 5.363-1.426 2.303c.586 1.056 1.049 2.173 1.381 3.332zm-49.365 8.412c2.757 0 5-2.243 5-5s-2.243-5-5-5-5 2.243-5 5 2.243 5 5 5zm-8 17c0 1.654 1.346 3 3 3h7c1.103 0 2 .897 2 2l-.001 6c0 .534.208 1.036.585 1.414.378.378.881.586 1.415.586 1.104 0 2.001-.897 2.001-2.001v-8.999c0-1.654-1.346-3-3-3h-4v-11h7.941c1.107 0 2.197-.374 3.069-1.053l6.338-4.93c.415-.322.652-.806.652-1.33 0-.93-.757-1.687-1.687-1.687h-.418c-.362 0-.722.12-1.013.338l-6.75 5.062c-.514.386-1.153.6-1.799.6h-8.333c-3.859 0-7 3.141-7 7zm18 2v4.558l18.209-12.674c-.668-.26-1.324-.55-1.953-.899l-2.303 1.426-5.363-5.363 1.426-2.303c-.461-.831-.839-1.702-1.144-2.6l-5.633 4.381c-1.221.951-2.748 1.474-4.298 1.474h-5.941v7h2c2.757 0 5 2.243 5 5zm-12 12.905 4.143-2.895c-.085-.328-.144-.663-.144-1.011v-.001l.001-5.998h-4zm-4 6.095c1.103 0 2-.897 2-2v-14h-1c-1.13 0-2.162-.391-3-1.026v15.026c0 1.103.897 2 2 2zm56-37.737-.635.149c-.332 1.159-.795 2.275-1.381 3.332l1.426 2.303-5.363 5.363-2.303-1.426c-1.057.586-2.173 1.049-3.332 1.381l-.62 2.635h-7.584l-.419-1.78-19.789 13.774v2.005c0 2.206-1.795 4.001-4.001 4.001-1.068 0-2.073-.416-2.829-1.172-.019-.019-.032-.042-.05-.061l-5.12 3.578v1.655c0 .732-.212 1.409-.556 2h52.556zm0-6.471-2.273-.535-.146-.596c-.336-1.376-.881-2.688-1.617-3.903l-.318-.523 1.229-1.986-3.123-3.123-1.986 1.229-.523-.318c-1.215-.736-2.527-1.281-3.903-1.617l-.596-.146-.536-2.274h-4.416l-.535 2.273-.596.146c-1.376.336-2.688.881-3.903 1.617l-.523.318-1.986-1.229-3.123 3.123 1.229 1.986-.318.523c-.736 1.215-1.281 2.527-1.617 3.903l-.146.596-2.274.536v.277c1.705.323 3 1.819 3 3.617 0 .669-.195 1.299-.523 1.856.339 1.301.86 2.545 1.559 3.7l.318.523-1.229 1.986 3.123 3.123 1.986-1.229.523.318c1.215.736 2.527 1.281 3.903 1.617l.596.146.536 2.274h4.416l.535-2.273.596-.146c1.376-.336 2.688-.881 3.903-1.617l.523-.318 1.986 1.229 3.123-3.123-1.229-1.986.318-.523c.736-1.215 1.281-2.527 1.617-3.903l.146-.596 2.274-.536v-.208zm-4 2.208c0 6.617-5.383 12-12 12s-12-5.383-12-12 5.383-12 12-12 12 5.383 12 12zm-2 0c0-5.514-4.486-10-10-10s-10 4.486-10 10 4.486 10 10 10 10-4.486 10-10zm-4 0c0 3.309-2.691 6-6 6s-6-2.691-6-6 2.691-6 6-6 6 2.691 6 6zm-2 0c0-2.206-1.794-4-4-4s-4 1.794-4 4 1.794 4 4 4 4-1.794 4-4zm8 40h2v-2h-2zm0-4h2v-2h-2zm0-4h2v-2h-2zm-46 8h2v-2h-2zm4 0h2v-2h-2zm4 0h2v-2h-2z" fill="url(#SVGID_1_)"/></svg>